<?xml version="1.0" standalone="no"?><!DOCTYPE svg PUBLIC "-//W3C//DTD SVG 1.1//EN" "http://www.w3.org/Graphics/SVG/1.1/DTD/svg11.dtd"><svg t="1682557179662" class="icon" viewBox="0 0 1024 1024" version="1.1" xmlns="http://www.w3.org/2000/svg" p-id="6626" xmlns:xlink="http://www.w3.org/1999/xlink" width="200" height="200"><path d="M813.7 237.7c-139.6-6.8-242.4-70.9-280.1-98-4.9-3.5-10.6-5.3-16.3-5.3-7.1 0-14.1 2.7-19.5 7.9-78.1 76.1-226.9 91-287.3 93.8-14.9 0.7-26.6 13-26.6 27.9v270.7c0 37.8 19.7 89.2 51.1 141.4 2.3 4.8 7.1 8.1 12.8 8.1 7.9 0 14.3-6.4 14.3-14.3 0-3.6-1.4-6.8-3.6-9.3l0.1-0.1c-28.6-47.3-46.7-93.2-46.7-125.8V264c63.4-3 220.4-18.7 305.5-101.7 42.4 30.6 149.4 96.1 295.1 103.3V544c0 89.1-165.6 324.3-298.1 324.3-56 0-125-49.1-180.7-108.4-0.1-0.1-0.3-0.1-0.4-0.2-2.6-3.2-6.4-5.4-10.9-5.4-7.9 0-14.3 6.4-14.3 14.3 0 4 1.7 7.6 4.4 10.2 0 0 0 0.1 0.1 0.1 61.2 65.8 136 117.3 201.8 117.3 151.9 0 326-250 326.1-352.2V265.6c-0.3-14.9-11.9-27.2-26.8-27.9z" fill="#ffffff" p-id="6627"></path><path d="M512 675.3c-7.6 0-13.7-6.1-13.7-13.7V516.8c0-7.6 6.1-13.7 13.7-13.7s13.7 6.1 13.7 13.7v144.8c0 7.6-6.1 13.7-13.7 13.7z" fill="#ffffff" p-id="6628"></path><path d="M512 526.4c-54.9 0-99.6-44.7-99.6-99.6s44.7-99.6 99.6-99.6 99.6 44.7 99.6 99.6-44.7 99.6-99.6 99.6z m0-171.6c-39.8 0-72.1 32.3-72.1 72.1S472.2 499 512 499s72.1-32.3 72.1-72.1-32.3-72.1-72.1-72.1z" fill="#ffffff" p-id="6629"></path></svg>